<svg xmlns="http://www.w3.org/2000/svg" width="20" height="19" viewBox="0 0 20 19" fill="none">
    <path
        d="M15.3526 7.30765H13.8911C13.8905 6.7264 13.6593 6.16911 13.2483 5.7581C12.8373 5.34709 12.28 5.11593 11.6988 5.11535V3.65381C12.6675 3.65497 13.5962 4.0403 14.2811 4.72528C14.9661 5.41025 15.3514 6.33895 15.3526 7.30765Z"
        fill="white" />
    <path
        d="M18.2757 7.30769H16.8141C16.8126 5.95148 16.2732 4.65126 15.3142 3.69228C14.3552 2.73329 13.055 2.19386 11.6988 2.19231V0.73077C13.4425 0.732704 15.1142 1.42625 16.3472 2.65924C17.5802 3.89224 18.2737 5.56398 18.2757 7.30769ZM16.8141 19H16.6899C2.3303 18.1742 0.291449 6.05808 0.00644866 2.36039C-0.0380945 1.7807 0.149448 1.20706 0.527825 0.765645C0.906202 0.324228 1.44442 0.0511865 2.0241 0.00657765C2.08208 0.00219304 2.14029 6.85162e-07 2.19876 6.85162e-07H6.04991C6.34263 -0.000282681 6.62868 0.0873347 6.87103 0.251503C7.11337 0.415672 7.30084 0.648828 7.40914 0.92077L8.51991 3.65385C8.62686 3.91952 8.6534 4.21075 8.59624 4.49137C8.53907 4.772 8.40072 5.02964 8.19837 5.23231L6.64183 6.80346C6.88398 8.18559 7.54535 9.4598 8.53623 10.4533C9.52712 11.4468 10.7996 12.1115 12.1811 12.3573L13.7668 10.7862C13.9725 10.586 14.2326 10.4509 14.5146 10.3976C14.7966 10.3444 15.0881 10.3753 15.3526 10.4865L18.1076 11.59C18.3754 11.7017 18.604 11.8907 18.764 12.1327C18.9241 12.3748 19.0085 12.659 19.0064 12.9492V16.8077C19.0064 17.3891 18.7755 17.9468 18.3643 18.3579C17.9532 18.769 17.3956 19 16.8141 19ZM2.19876 1.46154C2.10279 1.46125 2.00771 1.47987 1.91894 1.51633C1.83016 1.55278 1.74944 1.60637 1.68138 1.67403C1.61332 1.74168 1.55925 1.82208 1.52226 1.91063C1.48527 1.99918 1.46608 2.09415 1.4658 2.19012C1.4658 2.21058 1.46653 2.2308 1.46799 2.25077C1.80414 6.57692 3.95991 16.8077 16.7703 17.5385C16.9637 17.5501 17.1538 17.4844 17.2988 17.3558C17.4438 17.2273 17.5318 17.0464 17.5434 16.853L17.5449 16.8077V12.9492L14.7899 11.8458L12.6926 13.9285L12.3418 13.8846C5.98414 13.0881 5.12183 6.73039 5.12183 6.66462L5.07799 6.31385L7.15337 4.21654L6.05722 1.46154H2.19876Z"
        fill="white" />
</svg>