<svg xmlns="http://www.w3.org/2000/svg" width="21" height="20" viewBox="0 0 21 20" fill="none">
    <path
        d="M19.5588 5.71521H15.3115C15.5294 5.57958 15.736 5.42671 15.9291 5.2581C16.2204 5.0009 16.455 4.68693 16.6183 4.33581C16.7816 3.98469 16.8701 3.60397 16.8782 3.21742C16.8909 2.79219 16.8158 2.36889 16.6576 1.97343C16.4994 1.57798 16.2614 1.2187 15.9582 0.917602C15.655 0.616506 15.293 0.379933 14.8943 0.222374C14.4957 0.0648148 14.0687 -0.0104129 13.6397 0.00129904C13.2497 0.00939594 12.8656 0.0971175 12.5114 0.258983C12.1571 0.420849 11.8404 0.653382 11.5809 0.942054C11.104 1.49982 10.7374 2.14156 10.5 2.83377C10.2631 2.14208 9.89718 1.5007 9.42118 0.943075C9.16154 0.653967 8.84449 0.421098 8.48988 0.259045C8.13526 0.0969924 7.7507 0.00924597 7.36029 0.00129904C6.93101 -0.0109724 6.50373 0.0638068 6.10465 0.22105C5.70557 0.378294 5.3431 0.614687 5.03947 0.915732C4.73585 1.21678 4.49747 1.57613 4.33895 1.97174C4.18044 2.36736 4.10513 2.7909 4.11765 3.2164C4.12582 3.60294 4.21432 3.98367 4.37762 4.33479C4.54093 4.68591 4.77553 4.99988 5.06677 5.25708C5.2597 5.42593 5.46627 5.57881 5.68441 5.71419H1.44118C1.25183 5.71419 1.06434 5.75118 0.889425 5.82303C0.714506 5.89488 0.555586 6.00019 0.421747 6.13295C0.287908 6.2657 0.181773 6.4233 0.109408 6.59672C0.0370424 6.77015 -0.000134878 6.95602 3.67681e-07 7.14369V10.4088C3.67681e-07 10.7876 0.151838 11.151 0.422111 11.4189C0.692384 11.6868 1.05895 11.8373 1.44118 11.8373H1.64706V18.5715C1.64706 18.9504 1.7989 19.3137 2.06917 19.5816C2.33944 19.8495 2.70601 20 3.08824 20H17.9118C18.294 20 18.6606 19.8495 18.9308 19.5816C19.2011 19.3137 19.3529 18.9504 19.3529 18.5715V11.8373H19.5588C19.941 11.8373 20.3076 11.6868 20.5779 11.4189C20.8482 11.151 21 10.7876 21 10.4088V7.14369C21 6.76484 20.8482 6.4015 20.5779 6.13361C20.3076 5.86571 19.941 5.71521 19.5588 5.71521ZM11.2999 4.59284C11.5315 3.35618 11.9474 2.37359 12.5032 1.75119C12.652 1.58846 12.8329 1.45783 13.0348 1.36743C13.2367 1.27702 13.4552 1.22878 13.6768 1.22571H13.7334C13.9895 1.22574 14.243 1.27669 14.4789 1.37556C14.7147 1.47442 14.9282 1.61918 15.1067 1.80128C15.2851 1.98337 15.4249 2.19909 15.5177 2.43568C15.6105 2.67227 15.6545 2.9249 15.6471 3.17864C15.6436 3.39844 15.5944 3.61516 15.5027 3.81529C15.4109 4.01542 15.2786 4.19466 15.1138 4.34183C14.0103 5.30708 12.1388 5.59583 11.1526 5.6795C11.1784 5.38462 11.2206 5.00914 11.2999 4.59284ZM5.91397 1.7818C6.27328 1.42695 6.75941 1.2271 7.26662 1.22571H7.32324C7.54498 1.22917 7.76363 1.27789 7.96554 1.36883C8.16745 1.45976 8.34828 1.59096 8.49677 1.75425C9.47059 2.84805 9.76191 4.70303 9.84632 5.68052C9.54882 5.65501 9.17 5.61114 8.75412 5.53461C7.50647 5.30708 6.51515 4.89282 5.88721 4.34081C5.72222 4.194 5.5896 4.015 5.49767 3.81501C5.40573 3.61503 5.35646 3.39838 5.35294 3.17864C5.34584 2.92025 5.39192 2.66313 5.48838 2.42297C5.58484 2.18281 5.72964 1.96465 5.91397 1.7818ZM1.23529 10.4088V7.14369C1.23529 7.08957 1.25699 7.03766 1.2956 6.99939C1.33421 6.96112 1.38657 6.93962 1.44118 6.93962H9.88235V10.6129H1.44118C1.38657 10.6129 1.33421 10.5914 1.2956 10.5531C1.25699 10.5148 1.23529 10.4629 1.23529 10.4088ZM2.88235 18.5715V11.8373H9.88235V18.7756H3.08824C3.03363 18.7756 2.98127 18.7541 2.94265 18.7158C2.90404 18.6775 2.88235 18.6256 2.88235 18.5715ZM18.1176 18.5715C18.1176 18.6256 18.096 18.6775 18.0573 18.7158C18.0187 18.7541 17.9664 18.7756 17.9118 18.7756H11.1176V11.8373H18.1176V18.5715ZM19.7647 10.4088C19.7647 10.4629 19.743 10.5148 19.7044 10.5531C19.6658 10.5914 19.6134 10.6129 19.5588 10.6129H11.1176V6.93962H19.5588C19.6134 6.93962 19.6658 6.96112 19.7044 6.99939C19.743 7.03766 19.7647 7.08957 19.7647 7.14369V10.4088Z"
        fill="white" />
</svg>