<svg xmlns="http://www.w3.org/2000/svg" width="34" height="34" viewBox="0 0 34 34" fill="none">
    <circle cx="17" cy="17" r="17" fill="#42454A" />
    <path
        d="M15.7857 17.9004L14.0282 16.1429L13.0714 17.0997L15.7857 19.8139L21.2143 14.3854L20.2575 13.4286L15.7857 17.9004Z"
        fill="white" />
    <path
        d="M17.1429 27L12.952 24.7655C11.7573 24.1299 10.7582 23.1809 10.0619 22.0205C9.36567 20.86 8.99857 19.5319 9 18.1786V9.35714C9.00036 8.99732 9.14346 8.65233 9.3979 8.39789C9.65233 8.14346 9.99732 8.00036 10.3571 8H23.9286C24.2884 8.00036 24.6334 8.14346 24.8878 8.39789C25.1423 8.65233 25.2854 8.99732 25.2857 9.35714V18.1786C25.2872 19.5319 24.9201 20.86 24.2238 22.0205C23.5276 23.1809 22.5285 24.1299 21.3337 24.7655L17.1429 27ZM10.3571 9.35714V18.1786C10.356 19.2859 10.6565 20.3726 11.2262 21.322C11.796 22.2715 12.6136 23.0478 13.5912 23.5678L17.1429 25.4617L20.6945 23.5685C21.6722 23.0485 22.4899 22.272 23.0597 21.3224C23.6294 20.3728 23.9298 19.286 23.9286 18.1786V9.35714H10.3571Z"
        fill="white" />
</svg>