<svg xmlns="http://www.w3.org/2000/svg" width="21" height="22" viewBox="0 0 21 22" fill="none">
    <path d="M14 14.9979L16 16.9979L20 12.9979" stroke="white" stroke-width="1.5" stroke-linecap="round"
        stroke-linejoin="round" />
    <path
        d="M19 8.99795V6.99795C18.9996 6.64722 18.9071 6.30276 18.7315 5.99911C18.556 5.69546 18.3037 5.44331 18 5.26795L11 1.26795C10.696 1.09241 10.3511 1 10 1C9.64893 1 9.30404 1.09241 9 1.26795L2 5.26795C1.69626 5.44331 1.44398 5.69546 1.26846 5.99911C1.09294 6.30276 1.00036 6.64722 1 6.99795V14.9979C1.00036 15.3487 1.09294 15.6931 1.26846 15.9968C1.44398 16.3004 1.69626 16.5526 2 16.7279L9 20.7279C9.30404 20.9035 9.64893 20.9959 10 20.9959C10.3511 20.9959 10.696 20.9035 11 20.7279L13 19.5879M14.5 8.39795L5.55 3.23795"
        stroke="white" stroke-width="1.5" stroke-linecap="round" stroke-linejoin="round" />
    <path d="M1.29001 5.99792L10 10.9979M10 10.9979L18.71 5.99792M10 10.9979V20.9979" stroke="white" stroke-width="1.5"
        stroke-linecap="round" stroke-linejoin="round" />
</svg>