<svg xmlns="http://www.w3.org/2000/svg" width="81" height="81" viewBox="0 0 81 81" fill="none">
    <path
        d="M33.9264 0.227036L61.5112 17.1846L59.3234 19.6332L33.14 3.53479L3.09522 22.0174V58.9933C13.1068 65.147 23.1285 71.3115 33.14 77.4652L63.1949 58.9826V32.0588L37.8686 61.8823L19.2872 34.6255L37.8686 45.4509L81 11.0954L66.2801 28.4289V59.9277C66.2801 60.5828 65.9272 61.1412 65.413 61.4097L33.9164 80.7837C33.4122 81.0844 32.8174 81.0629 32.3536 80.773C21.8279 74.2971 11.3122 67.8212 0.786408 61.3453C0.292382 61.0446 0.0100822 60.4969 0.0100822 59.9277L0 21.0723C0 20.4172 0.362957 19.8588 0.877147 19.5903L32.3738 0.216296C32.8678 -0.0844086 33.4627 -0.0629297 33.9264 0.227036Z"
        fill="#42454A" />
</svg>